<svg xmlns="http://www.w3.org/2000/svg" viewBox="0 0 736 736">
    <rect rx="100%" fill="#FFF" height="100%" width="100%" />
    <path
        fill="#000"
        stroke="none"
        opacity="1.0000000"
        d="M424.833 270.213c13.742 23.83 27.287 47.349 40.86 70.853 1.294 2.24 2.168 4.18.59 6.886-16.016 27.476-31.9 55.03-47.836 82.552-.402.695-.985 1.285-1.426 1.85-2.11-.039-2.587-1.64-3.291-2.863-6.144-10.675-12.16-21.426-18.416-32.035-1.66-2.813-1.625-5.06 0-7.838 7.65-13.08 15.037-26.315 22.765-39.348 1.918-3.234 2.296-5.768.311-9.139-8.28-14.058-16.373-28.23-24.392-42.44-1.846-3.27-4.138-4.675-7.984-4.625-12.824.169-25.652.015-38.478-.035-2.13-.008-4.33.299-7.247-1.667l48.734-84.385c12.34 21.451 23.981 41.686 35.81 62.234z" />
    <path
        fill="#000"
        stroke="none"
        opacity="1.0000000"
        d="M321.401 476.646l4.578 8.344H230.97c-.817-2.394.69-3.778 1.565-5.298 24.336-42.31 48.712-84.597 73.026-126.92 1.45-2.524 3.077-4.05 6.226-4.044 31.164.058 62.329.012 93.493.01 1.149-.001 2.343-.045 3.254.764.973 1.52-.075 2.579-.72 3.695-6.078 10.532-12.31 20.979-18.183 31.625-2.145 3.89-4.873 5.247-9.223 5.161-15.144-.297-30.297-.148-45.44-.453-3.551-.072-5.528 1.252-7.185 4.137-8.21 14.301-16.459 28.583-24.857 42.775-1.757 2.97-1.718 5.416-.003 8.321 6.184 10.473 12.215 21.035 18.478 31.883z" />
    <path
        fill="#000"
        stroke="none"
        opacity="1.0000000"
        d="M377.927 463.023c-12.458-21.65-24.736-42.98-36.889-64.094 1.29-2.342 3.137-1.91 4.693-1.918 12.325-.065 24.652.014 36.977-.107 2.917-.03 4.49 1.23 5.879 3.65 7.79 13.573 15.793 27.024 23.534 40.624 1.637 2.875 3.646 3.856 6.823 3.832 16.823-.128 33.648-.187 50.47-.06 3.68.027 5.812-1.444 7.547-4.512 6.31-11.16 12.757-22.242 19.219-33.316.897-1.537 1.459-3.396 4.112-4.828l47.067 81.701c-.939 2.015-2.447 1.39-3.665 1.39-49.139.022-98.277-.028-147.415.09-4.003.01-6.395-1.158-8.247-4.796-3.017-5.927-6.588-11.572-10.105-17.656zM254.86 425.812c-10.73 18.576-21.271 36.836-31.61 54.745-2.01-.046-2.545-.924-3.043-1.788-6.318-10.962-12.56-21.968-18.973-32.873-1.733-2.948-1.587-5.371.122-8.317 24.725-42.626 49.352-85.308 74.006-127.975.733-1.268 1.263-2.737 3.627-3.513 3.702 6.327 7.467 12.716 11.187 19.131 3.006 5.184 5.749 10.536 9.01 15.55 2.05 3.151 1.67 5.564-.125 8.641-14.756 25.311-29.363 50.71-44.202 76.399zM387.445 499.447c1.994-5.596 5.804-6.713 11.1-6.689 47.478.218 94.958.176 142.438.25 1.926.003 4.001-.509 5.721.844.815 1.757-.394 2.943-1.097 4.17-6.13 10.69-12.38 21.311-18.433 32.044-1.433 2.541-3.263 3.348-6.053 3.345-49.145-.052-98.291-.032-147.437-.039-1.451 0-2.962.156-5.002-1.247a72186.57 72186.57 0 0118.763-32.678zM460.268 316.662c-21.356-37.02-42.52-73.727-63.877-110.768 1.446-.572 2.024-1 2.604-1.002 13.491-.059 26.983-.032 40.474-.127 2.669-.019 3.771 1.634 4.885 3.57 16.357 28.43 32.735 56.85 49.097 85.279a18971.226 18971.226 0 0123.871 41.591c.886 1.55 2.271 2.932 2.003 5.06-1.188 1.61-2.993 1.022-4.543 1.03-11.827.056-23.657-.106-35.48.117-3.714.07-5.777-1.357-7.465-4.474-3.647-6.733-7.567-13.319-11.569-20.276zM341.762 415.294c13.733 23.828 27.26 47.35 40.858 70.832 1.18 2.037 1.744 3.778.449 5.997-6.798 11.648-13.504 23.348-20.265 35.017-.322.556-.86.986-1.245 1.415-2.102.029-2.47-1.68-3.17-2.888-15.517-26.8-30.958-53.644-46.55-80.4-1.903-3.268-1.97-5.743.061-9.087 6.31-10.383 12.187-21.031 18.24-31.572.652-1.136 1.064-2.476 3.077-3.305 3.359 4.07 5.506 9.11 8.545 13.991z" />
    <path
        fill="#000"
        stroke="none"
        opacity="1.0000000"
        d="M451.708 387.765c6.857-11.833 13.546-23.34 20.18-34.88 1.283-2.23 2.467-4.176 5.578-4.151 13.148.103 26.297.036 39.446.057.964.002 2.024-.057 2.749 1.031.496 1.777-.81 3.043-1.606 4.426-15.111 26.24-30.308 52.432-45.307 78.736-1.885 3.306-3.891 4.624-7.797 4.565-10.971-.166-21.95.217-32.927.365-2.631.036-5.276.083-8.396-1.43 9.354-16.232 18.623-32.318 28.08-48.719zM402.232 327.816c2.266 4.39 5.312 7.997 6.559 12.414-2.002 1.561-3.898 1.068-5.66 1.07-29.812.032-59.625-.055-89.437.106-4.006.021-6.436-1.18-8.377-4.685-5.404-9.755-11.12-19.337-16.655-29.021-.967-1.693-2.324-3.275-2.272-5.421 1.418-1.761 3.381-1.191 5.13-1.195 30.145-.06 60.29-.04 90.436-.165 3.377-.014 5.52.944 7.194 4.042 4.114 7.613 8.583 15.035 13.082 22.855z" />
</svg>